<mxfile host="app.diagrams.net" modified="2023-05-29T06:04:05.889Z" agent="Mozilla/5.0 (Windows NT 10.0; Win64; x64) AppleWebKit/537.36 (KHTML, like Gecko) Chrome/113.0.0.0 Safari/537.36" etag="ruPX-HroK887TJ_TL9Lw" version="21.3.5" type="github">
  <diagram id="C5RBs43oDa-KdzZeNtuy" name="Page-1">
    <mxGraphModel dx="1930" dy="588" grid="1" gridSize="10" guides="1" tooltips="1" connect="1" arrows="1" fold="1" page="1" pageScale="1" pageWidth="827" pageHeight="1169" math="0" shadow="0">
      <root>
        <mxCell id="WIyWlLk6GJQsqaUBKTNV-0" />
        <mxCell id="WIyWlLk6GJQsqaUBKTNV-1" parent="WIyWlLk6GJQsqaUBKTNV-0" />
        <mxCell id="WIyWlLk6GJQsqaUBKTNV-2" value="" style="rounded=0;html=1;jettySize=auto;orthogonalLoop=1;fontSize=11;endArrow=block;endFill=0;endSize=8;strokeWidth=1;shadow=0;labelBackgroundColor=none;edgeStyle=orthogonalEdgeStyle;entryX=0.455;entryY=-0.015;entryDx=0;entryDy=0;entryPerimeter=0;exitX=0.5;exitY=0;exitDx=0;exitDy=0;" parent="WIyWlLk6GJQsqaUBKTNV-1" source="WIyWlLk6GJQsqaUBKTNV-3" target="rfF3xyyndjlrV5NvCtdU-0" edge="1">
          <mxGeometry relative="1" as="geometry">
            <mxPoint x="220" y="170" as="targetPoint" />
          </mxGeometry>
        </mxCell>
        <mxCell id="rfF3xyyndjlrV5NvCtdU-1" value="Farmer" style="edgeLabel;html=1;align=center;verticalAlign=middle;resizable=0;points=[];" vertex="1" connectable="0" parent="WIyWlLk6GJQsqaUBKTNV-2">
          <mxGeometry x="0.1119" y="-1" relative="1" as="geometry">
            <mxPoint as="offset" />
          </mxGeometry>
        </mxCell>
        <mxCell id="rfF3xyyndjlrV5NvCtdU-62" style="edgeStyle=orthogonalEdgeStyle;rounded=0;orthogonalLoop=1;jettySize=auto;html=1;exitX=0;exitY=1;exitDx=0;exitDy=0;" edge="1" parent="WIyWlLk6GJQsqaUBKTNV-1" source="WIyWlLk6GJQsqaUBKTNV-3" target="rfF3xyyndjlrV5NvCtdU-61">
          <mxGeometry relative="1" as="geometry">
            <Array as="points">
              <mxPoint x="230" y="90" />
              <mxPoint x="230" y="470" />
              <mxPoint x="110" y="470" />
            </Array>
          </mxGeometry>
        </mxCell>
        <mxCell id="rfF3xyyndjlrV5NvCtdU-63" value="buyer" style="edgeLabel;html=1;align=center;verticalAlign=middle;resizable=0;points=[];" vertex="1" connectable="0" parent="rfF3xyyndjlrV5NvCtdU-62">
          <mxGeometry x="-0.6005" y="-3" relative="1" as="geometry">
            <mxPoint y="-1" as="offset" />
          </mxGeometry>
        </mxCell>
        <mxCell id="WIyWlLk6GJQsqaUBKTNV-3" value="Login" style="rounded=1;whiteSpace=wrap;html=1;fontSize=12;glass=0;strokeWidth=1;shadow=0;" parent="WIyWlLk6GJQsqaUBKTNV-1" vertex="1">
          <mxGeometry x="354" y="50" width="120" height="40" as="geometry" />
        </mxCell>
        <mxCell id="rfF3xyyndjlrV5NvCtdU-0" value="" style="swimlane;startSize=0;" vertex="1" parent="WIyWlLk6GJQsqaUBKTNV-1">
          <mxGeometry x="-810" y="190" width="200" height="600" as="geometry">
            <mxRectangle x="10" y="180" width="50" height="40" as="alternateBounds" />
          </mxGeometry>
        </mxCell>
        <mxCell id="rfF3xyyndjlrV5NvCtdU-9" value="Add New Batch info" style="rounded=1;whiteSpace=wrap;html=1;" vertex="1" parent="rfF3xyyndjlrV5NvCtdU-0">
          <mxGeometry x="40" y="10" width="120" height="60" as="geometry" />
        </mxCell>
        <mxCell id="rfF3xyyndjlrV5NvCtdU-10" value="prev list" style="rounded=1;whiteSpace=wrap;html=1;" vertex="1" parent="rfF3xyyndjlrV5NvCtdU-0">
          <mxGeometry x="40" y="80" width="120" height="60" as="geometry" />
        </mxCell>
        <mxCell id="rfF3xyyndjlrV5NvCtdU-11" value="প্রেসক্রিপশন&lt;br&gt;request&amp;nbsp;" style="rounded=1;whiteSpace=wrap;html=1;" vertex="1" parent="rfF3xyyndjlrV5NvCtdU-0">
          <mxGeometry x="40" y="150" width="120" height="60" as="geometry" />
        </mxCell>
        <mxCell id="rfF3xyyndjlrV5NvCtdU-12" value="food order" style="rounded=1;whiteSpace=wrap;html=1;" vertex="1" parent="rfF3xyyndjlrV5NvCtdU-0">
          <mxGeometry x="40" y="220" width="120" height="60" as="geometry" />
        </mxCell>
        <mxCell id="rfF3xyyndjlrV5NvCtdU-14" value="ads" style="rounded=1;whiteSpace=wrap;html=1;" vertex="1" parent="rfF3xyyndjlrV5NvCtdU-0">
          <mxGeometry x="30" y="530" width="120" height="60" as="geometry" />
        </mxCell>
        <mxCell id="rfF3xyyndjlrV5NvCtdU-18" value="Accounts" style="rounded=1;whiteSpace=wrap;html=1;" vertex="1" parent="rfF3xyyndjlrV5NvCtdU-0">
          <mxGeometry x="40" y="360" width="120" height="60" as="geometry" />
        </mxCell>
        <mxCell id="rfF3xyyndjlrV5NvCtdU-2" value="" style="swimlane;startSize=0;" vertex="1" parent="WIyWlLk6GJQsqaUBKTNV-1">
          <mxGeometry x="-300" y="180" width="200" height="460" as="geometry">
            <mxRectangle x="270" y="180" width="50" height="40" as="alternateBounds" />
          </mxGeometry>
        </mxCell>
        <mxCell id="rfF3xyyndjlrV5NvCtdU-15" value="Add farmer" style="whiteSpace=wrap;html=1;" vertex="1" parent="rfF3xyyndjlrV5NvCtdU-2">
          <mxGeometry x="40" y="10" width="120" height="60" as="geometry" />
        </mxCell>
        <mxCell id="rfF3xyyndjlrV5NvCtdU-16" value="Add new batch info" style="rounded=1;whiteSpace=wrap;html=1;" vertex="1" parent="rfF3xyyndjlrV5NvCtdU-2">
          <mxGeometry x="40" y="80" width="120" height="60" as="geometry" />
        </mxCell>
        <mxCell id="rfF3xyyndjlrV5NvCtdU-19" value="prev farmer list" style="rounded=1;whiteSpace=wrap;html=1;" vertex="1" parent="rfF3xyyndjlrV5NvCtdU-2">
          <mxGeometry x="40" y="150" width="120" height="60" as="geometry" />
        </mxCell>
        <mxCell id="rfF3xyyndjlrV5NvCtdU-20" value="prev batch list" style="rounded=1;whiteSpace=wrap;html=1;" vertex="1" parent="rfF3xyyndjlrV5NvCtdU-2">
          <mxGeometry x="40" y="220" width="120" height="60" as="geometry" />
        </mxCell>
        <mxCell id="rfF3xyyndjlrV5NvCtdU-21" value="Accounts" style="rounded=1;whiteSpace=wrap;html=1;" vertex="1" parent="rfF3xyyndjlrV5NvCtdU-2">
          <mxGeometry x="40" y="290" width="120" height="60" as="geometry" />
        </mxCell>
        <mxCell id="rfF3xyyndjlrV5NvCtdU-22" value="food order" style="rounded=1;whiteSpace=wrap;html=1;" vertex="1" parent="rfF3xyyndjlrV5NvCtdU-2">
          <mxGeometry x="40" y="360" width="120" height="60" as="geometry" />
        </mxCell>
        <mxCell id="rfF3xyyndjlrV5NvCtdU-7" value="" style="rounded=0;html=1;jettySize=auto;orthogonalLoop=1;fontSize=11;endArrow=block;endFill=0;endSize=8;strokeWidth=1;shadow=0;labelBackgroundColor=none;edgeStyle=orthogonalEdgeStyle;entryX=0.5;entryY=0;entryDx=0;entryDy=0;" edge="1" parent="WIyWlLk6GJQsqaUBKTNV-1" source="WIyWlLk6GJQsqaUBKTNV-3" target="rfF3xyyndjlrV5NvCtdU-2">
          <mxGeometry relative="1" as="geometry">
            <mxPoint x="350" y="70" as="sourcePoint" />
            <mxPoint x="111" y="187" as="targetPoint" />
          </mxGeometry>
        </mxCell>
        <mxCell id="rfF3xyyndjlrV5NvCtdU-8" value="ফার্ম ফোর্স" style="edgeLabel;html=1;align=center;verticalAlign=middle;resizable=0;points=[];" vertex="1" connectable="0" parent="rfF3xyyndjlrV5NvCtdU-7">
          <mxGeometry x="0.1119" y="-1" relative="1" as="geometry">
            <mxPoint as="offset" />
          </mxGeometry>
        </mxCell>
        <mxCell id="rfF3xyyndjlrV5NvCtdU-23" value="" style="swimlane;startSize=0;" vertex="1" parent="WIyWlLk6GJQsqaUBKTNV-1">
          <mxGeometry x="314" y="190" width="200" height="490" as="geometry" />
        </mxCell>
        <mxCell id="rfF3xyyndjlrV5NvCtdU-27" value="add any tupe of user" style="rounded=1;whiteSpace=wrap;html=1;" vertex="1" parent="rfF3xyyndjlrV5NvCtdU-23">
          <mxGeometry x="40" y="10" width="120" height="60" as="geometry" />
        </mxCell>
        <mxCell id="rfF3xyyndjlrV5NvCtdU-28" value="user list" style="rounded=0;whiteSpace=wrap;html=1;" vertex="1" parent="rfF3xyyndjlrV5NvCtdU-23">
          <mxGeometry x="40" y="80" width="120" height="60" as="geometry" />
        </mxCell>
        <mxCell id="rfF3xyyndjlrV5NvCtdU-29" value="prescription info" style="rounded=1;whiteSpace=wrap;html=1;" vertex="1" parent="rfF3xyyndjlrV5NvCtdU-23">
          <mxGeometry x="40" y="150" width="120" height="60" as="geometry" />
        </mxCell>
        <mxCell id="rfF3xyyndjlrV5NvCtdU-30" value="sale info" style="rounded=1;whiteSpace=wrap;html=1;" vertex="1" parent="rfF3xyyndjlrV5NvCtdU-23">
          <mxGeometry x="40" y="220" width="120" height="60" as="geometry" />
        </mxCell>
        <mxCell id="rfF3xyyndjlrV5NvCtdU-31" value="available for sale info" style="rounded=1;whiteSpace=wrap;html=1;" vertex="1" parent="rfF3xyyndjlrV5NvCtdU-23">
          <mxGeometry x="40" y="290" width="120" height="60" as="geometry" />
        </mxCell>
        <mxCell id="rfF3xyyndjlrV5NvCtdU-25" value="" style="rounded=0;html=1;jettySize=auto;orthogonalLoop=1;fontSize=11;endArrow=block;endFill=0;endSize=8;strokeWidth=1;shadow=0;labelBackgroundColor=none;edgeStyle=orthogonalEdgeStyle;entryX=0.5;entryY=0;entryDx=0;entryDy=0;exitX=0.5;exitY=1;exitDx=0;exitDy=0;" edge="1" parent="WIyWlLk6GJQsqaUBKTNV-1" source="WIyWlLk6GJQsqaUBKTNV-3" target="rfF3xyyndjlrV5NvCtdU-23">
          <mxGeometry relative="1" as="geometry">
            <mxPoint x="364" y="80" as="sourcePoint" />
            <mxPoint y="200" as="targetPoint" />
          </mxGeometry>
        </mxCell>
        <mxCell id="rfF3xyyndjlrV5NvCtdU-26" value="admin" style="edgeLabel;html=1;align=center;verticalAlign=middle;resizable=0;points=[];" vertex="1" connectable="0" parent="rfF3xyyndjlrV5NvCtdU-25">
          <mxGeometry x="0.1119" y="-1" relative="1" as="geometry">
            <mxPoint as="offset" />
          </mxGeometry>
        </mxCell>
        <mxCell id="rfF3xyyndjlrV5NvCtdU-32" value="Entry&lt;br&gt;form&amp;nbsp;" style="rhombus;whiteSpace=wrap;html=1;" vertex="1" parent="WIyWlLk6GJQsqaUBKTNV-1">
          <mxGeometry x="-500" y="190" width="80" height="80" as="geometry" />
        </mxCell>
        <mxCell id="rfF3xyyndjlrV5NvCtdU-33" style="edgeStyle=orthogonalEdgeStyle;rounded=0;orthogonalLoop=1;jettySize=auto;html=1;entryX=0;entryY=0.5;entryDx=0;entryDy=0;" edge="1" parent="WIyWlLk6GJQsqaUBKTNV-1" source="rfF3xyyndjlrV5NvCtdU-9" target="rfF3xyyndjlrV5NvCtdU-32">
          <mxGeometry relative="1" as="geometry" />
        </mxCell>
        <mxCell id="rfF3xyyndjlrV5NvCtdU-34" style="edgeStyle=orthogonalEdgeStyle;rounded=0;orthogonalLoop=1;jettySize=auto;html=1;entryX=0.5;entryY=1;entryDx=0;entryDy=0;" edge="1" parent="WIyWlLk6GJQsqaUBKTNV-1" source="rfF3xyyndjlrV5NvCtdU-16" target="rfF3xyyndjlrV5NvCtdU-32">
          <mxGeometry relative="1" as="geometry" />
        </mxCell>
        <mxCell id="rfF3xyyndjlrV5NvCtdU-57" style="edgeStyle=orthogonalEdgeStyle;rounded=0;orthogonalLoop=1;jettySize=auto;html=1;exitX=0.5;exitY=1;exitDx=0;exitDy=0;entryX=0.5;entryY=0;entryDx=0;entryDy=0;" edge="1" parent="WIyWlLk6GJQsqaUBKTNV-1" source="rfF3xyyndjlrV5NvCtdU-35" target="rfF3xyyndjlrV5NvCtdU-51">
          <mxGeometry relative="1" as="geometry" />
        </mxCell>
        <mxCell id="rfF3xyyndjlrV5NvCtdU-65" style="edgeStyle=orthogonalEdgeStyle;rounded=0;orthogonalLoop=1;jettySize=auto;html=1;exitX=1;exitY=1;exitDx=0;exitDy=0;entryX=0.5;entryY=0;entryDx=0;entryDy=0;" edge="1" parent="WIyWlLk6GJQsqaUBKTNV-1" source="rfF3xyyndjlrV5NvCtdU-35" target="rfF3xyyndjlrV5NvCtdU-64">
          <mxGeometry relative="1" as="geometry">
            <Array as="points">
              <mxPoint x="-410" y="350" />
              <mxPoint x="-410" y="465" />
              <mxPoint x="-390" y="465" />
            </Array>
          </mxGeometry>
        </mxCell>
        <mxCell id="rfF3xyyndjlrV5NvCtdU-35" value="batch info tabel/ ready to sell" style="rhombus;whiteSpace=wrap;html=1;" vertex="1" parent="WIyWlLk6GJQsqaUBKTNV-1">
          <mxGeometry x="-520" y="290" width="80" height="80" as="geometry" />
        </mxCell>
        <mxCell id="rfF3xyyndjlrV5NvCtdU-36" style="edgeStyle=orthogonalEdgeStyle;rounded=0;orthogonalLoop=1;jettySize=auto;html=1;entryX=0;entryY=0.5;entryDx=0;entryDy=0;" edge="1" parent="WIyWlLk6GJQsqaUBKTNV-1" source="rfF3xyyndjlrV5NvCtdU-10" target="rfF3xyyndjlrV5NvCtdU-35">
          <mxGeometry relative="1" as="geometry" />
        </mxCell>
        <mxCell id="rfF3xyyndjlrV5NvCtdU-37" style="edgeStyle=orthogonalEdgeStyle;rounded=0;orthogonalLoop=1;jettySize=auto;html=1;entryX=1;entryY=0.5;entryDx=0;entryDy=0;" edge="1" parent="WIyWlLk6GJQsqaUBKTNV-1" source="rfF3xyyndjlrV5NvCtdU-20" target="rfF3xyyndjlrV5NvCtdU-35">
          <mxGeometry relative="1" as="geometry" />
        </mxCell>
        <mxCell id="rfF3xyyndjlrV5NvCtdU-38" value="farmer info/ user info" style="rhombus;whiteSpace=wrap;html=1;" vertex="1" parent="WIyWlLk6GJQsqaUBKTNV-1">
          <mxGeometry x="100" y="320" width="80" height="80" as="geometry" />
        </mxCell>
        <mxCell id="rfF3xyyndjlrV5NvCtdU-39" style="edgeStyle=orthogonalEdgeStyle;rounded=0;orthogonalLoop=1;jettySize=auto;html=1;entryX=0;entryY=0.5;entryDx=0;entryDy=0;" edge="1" parent="WIyWlLk6GJQsqaUBKTNV-1" source="rfF3xyyndjlrV5NvCtdU-19" target="rfF3xyyndjlrV5NvCtdU-38">
          <mxGeometry relative="1" as="geometry" />
        </mxCell>
        <mxCell id="rfF3xyyndjlrV5NvCtdU-40" style="edgeStyle=orthogonalEdgeStyle;rounded=0;orthogonalLoop=1;jettySize=auto;html=1;" edge="1" parent="WIyWlLk6GJQsqaUBKTNV-1" source="rfF3xyyndjlrV5NvCtdU-28" target="rfF3xyyndjlrV5NvCtdU-38">
          <mxGeometry relative="1" as="geometry" />
        </mxCell>
        <mxCell id="rfF3xyyndjlrV5NvCtdU-41" value="" style="swimlane;startSize=0;" vertex="1" parent="WIyWlLk6GJQsqaUBKTNV-1">
          <mxGeometry x="870" y="180" width="200" height="500" as="geometry" />
        </mxCell>
        <mxCell id="rfF3xyyndjlrV5NvCtdU-45" value="prescription request&amp;nbsp;&amp;nbsp;" style="rounded=1;whiteSpace=wrap;html=1;" vertex="1" parent="rfF3xyyndjlrV5NvCtdU-41">
          <mxGeometry x="50" y="20" width="120" height="60" as="geometry" />
        </mxCell>
        <mxCell id="rfF3xyyndjlrV5NvCtdU-53" value="prev prescription&amp;nbsp;" style="rounded=1;whiteSpace=wrap;html=1;" vertex="1" parent="rfF3xyyndjlrV5NvCtdU-41">
          <mxGeometry x="50" y="100" width="120" height="60" as="geometry" />
        </mxCell>
        <mxCell id="rfF3xyyndjlrV5NvCtdU-42" value="" style="rounded=0;html=1;jettySize=auto;orthogonalLoop=1;fontSize=11;endArrow=block;endFill=0;endSize=8;strokeWidth=1;shadow=0;labelBackgroundColor=none;edgeStyle=orthogonalEdgeStyle;entryX=0.5;entryY=0;entryDx=0;entryDy=0;exitX=1;exitY=0.5;exitDx=0;exitDy=0;" edge="1" parent="WIyWlLk6GJQsqaUBKTNV-1" source="WIyWlLk6GJQsqaUBKTNV-3" target="rfF3xyyndjlrV5NvCtdU-41">
          <mxGeometry relative="1" as="geometry">
            <mxPoint x="424" y="100" as="sourcePoint" />
            <mxPoint x="424" y="200" as="targetPoint" />
          </mxGeometry>
        </mxCell>
        <mxCell id="rfF3xyyndjlrV5NvCtdU-44" value="Doctor" style="edgeLabel;html=1;align=center;verticalAlign=middle;resizable=0;points=[];" vertex="1" connectable="0" parent="rfF3xyyndjlrV5NvCtdU-42">
          <mxGeometry x="-0.0001" relative="1" as="geometry">
            <mxPoint as="offset" />
          </mxGeometry>
        </mxCell>
        <mxCell id="rfF3xyyndjlrV5NvCtdU-49" value="" style="edgeStyle=orthogonalEdgeStyle;rounded=0;orthogonalLoop=1;jettySize=auto;html=1;" edge="1" parent="WIyWlLk6GJQsqaUBKTNV-1" source="rfF3xyyndjlrV5NvCtdU-46" target="rfF3xyyndjlrV5NvCtdU-48">
          <mxGeometry relative="1" as="geometry" />
        </mxCell>
        <mxCell id="rfF3xyyndjlrV5NvCtdU-46" value="list" style="rhombus;whiteSpace=wrap;html=1;" vertex="1" parent="WIyWlLk6GJQsqaUBKTNV-1">
          <mxGeometry x="660" y="200" width="80" height="80" as="geometry" />
        </mxCell>
        <mxCell id="rfF3xyyndjlrV5NvCtdU-47" style="edgeStyle=orthogonalEdgeStyle;rounded=0;orthogonalLoop=1;jettySize=auto;html=1;entryX=1;entryY=0.5;entryDx=0;entryDy=0;" edge="1" parent="WIyWlLk6GJQsqaUBKTNV-1" source="rfF3xyyndjlrV5NvCtdU-45" target="rfF3xyyndjlrV5NvCtdU-46">
          <mxGeometry relative="1" as="geometry" />
        </mxCell>
        <mxCell id="rfF3xyyndjlrV5NvCtdU-52" style="edgeStyle=orthogonalEdgeStyle;rounded=0;orthogonalLoop=1;jettySize=auto;html=1;entryX=0.417;entryY=1;entryDx=0;entryDy=0;entryPerimeter=0;" edge="1" parent="WIyWlLk6GJQsqaUBKTNV-1" source="rfF3xyyndjlrV5NvCtdU-48" target="rfF3xyyndjlrV5NvCtdU-51">
          <mxGeometry relative="1" as="geometry">
            <Array as="points">
              <mxPoint x="700" y="740" />
              <mxPoint x="-490" y="740" />
            </Array>
          </mxGeometry>
        </mxCell>
        <mxCell id="rfF3xyyndjlrV5NvCtdU-48" value="details and give&amp;nbsp;&lt;br&gt;prescription" style="ellipse;whiteSpace=wrap;html=1;" vertex="1" parent="WIyWlLk6GJQsqaUBKTNV-1">
          <mxGeometry x="570" y="350" width="80" height="80" as="geometry" />
        </mxCell>
        <mxCell id="rfF3xyyndjlrV5NvCtdU-51" value="details" style="shape=trapezoid;perimeter=trapezoidPerimeter;whiteSpace=wrap;html=1;fixedSize=1;" vertex="1" parent="WIyWlLk6GJQsqaUBKTNV-1">
          <mxGeometry x="-540" y="410" width="120" height="60" as="geometry" />
        </mxCell>
        <mxCell id="rfF3xyyndjlrV5NvCtdU-54" style="edgeStyle=orthogonalEdgeStyle;rounded=0;orthogonalLoop=1;jettySize=auto;html=1;entryX=1;entryY=0.5;entryDx=0;entryDy=0;" edge="1" parent="WIyWlLk6GJQsqaUBKTNV-1" source="rfF3xyyndjlrV5NvCtdU-53" target="rfF3xyyndjlrV5NvCtdU-55">
          <mxGeometry relative="1" as="geometry" />
        </mxCell>
        <mxCell id="rfF3xyyndjlrV5NvCtdU-55" value="given list" style="shape=hexagon;perimeter=hexagonPerimeter2;whiteSpace=wrap;html=1;fixedSize=1;" vertex="1" parent="WIyWlLk6GJQsqaUBKTNV-1">
          <mxGeometry x="707" y="320" width="120" height="80" as="geometry" />
        </mxCell>
        <mxCell id="rfF3xyyndjlrV5NvCtdU-56" style="edgeStyle=orthogonalEdgeStyle;rounded=0;orthogonalLoop=1;jettySize=auto;html=1;entryX=0.5;entryY=0;entryDx=0;entryDy=0;" edge="1" parent="WIyWlLk6GJQsqaUBKTNV-1" source="rfF3xyyndjlrV5NvCtdU-29" target="rfF3xyyndjlrV5NvCtdU-55">
          <mxGeometry relative="1" as="geometry">
            <Array as="points">
              <mxPoint x="550" y="370" />
              <mxPoint x="550" y="290" />
              <mxPoint x="767" y="290" />
            </Array>
          </mxGeometry>
        </mxCell>
        <mxCell id="rfF3xyyndjlrV5NvCtdU-58" value="" style="swimlane;startSize=0;" vertex="1" parent="WIyWlLk6GJQsqaUBKTNV-1">
          <mxGeometry x="1230" y="180" width="200" height="510" as="geometry" />
        </mxCell>
        <mxCell id="rfF3xyyndjlrV5NvCtdU-59" value="" style="rounded=0;html=1;jettySize=auto;orthogonalLoop=1;fontSize=11;endArrow=block;endFill=0;endSize=8;strokeWidth=1;shadow=0;labelBackgroundColor=none;edgeStyle=orthogonalEdgeStyle;entryX=0.5;entryY=0;entryDx=0;entryDy=0;exitX=1;exitY=0;exitDx=0;exitDy=0;" edge="1" parent="WIyWlLk6GJQsqaUBKTNV-1" source="WIyWlLk6GJQsqaUBKTNV-3" target="rfF3xyyndjlrV5NvCtdU-58">
          <mxGeometry relative="1" as="geometry">
            <mxPoint x="484" y="80" as="sourcePoint" />
            <mxPoint x="980" y="190" as="targetPoint" />
          </mxGeometry>
        </mxCell>
        <mxCell id="rfF3xyyndjlrV5NvCtdU-60" value="food seller&amp;nbsp;" style="edgeLabel;html=1;align=center;verticalAlign=middle;resizable=0;points=[];" vertex="1" connectable="0" parent="rfF3xyyndjlrV5NvCtdU-59">
          <mxGeometry x="-0.0001" relative="1" as="geometry">
            <mxPoint as="offset" />
          </mxGeometry>
        </mxCell>
        <mxCell id="rfF3xyyndjlrV5NvCtdU-61" value="" style="swimlane;startSize=0;" vertex="1" parent="WIyWlLk6GJQsqaUBKTNV-1">
          <mxGeometry x="10" y="850" width="200" height="620" as="geometry" />
        </mxCell>
        <mxCell id="rfF3xyyndjlrV5NvCtdU-64" value="give info&amp;nbsp;" style="ellipse;whiteSpace=wrap;html=1;" vertex="1" parent="WIyWlLk6GJQsqaUBKTNV-1">
          <mxGeometry x="-450" y="560" width="120" height="80" as="geometry" />
        </mxCell>
      </root>
    </mxGraphModel>
  </diagram>
</mxfile>
